<svg xmlns="http://www.w3.org/2000/svg" width="24" height="24" viewBox="0 0 24 24"><defs><style>.a{fill:none;}.b{fill:#fff;stroke:#707070;stroke-width:1.5px;}.c{fill:#7a7e7f;}.d{stroke:none;}</style></defs><path class="a" d="M0,0H24V24H0Z"/><g class="b" transform="translate(2 2)"><rect class="d" width="20" height="20" rx="4"/><rect class="a" x="0.75" y="0.75" width="18.5" height="18.5" rx="3.25"/></g><path class="c" d="M197.821,128.221a.845.845,0,0,0-.842.842v.017a.845.845,0,0,0,.843.842h1.217a.845.845,0,0,1,.843.842v.558a.845.845,0,0,1-.842.843h-1.217a.845.845,0,0,0-.842.842v2.128a.845.845,0,0,1-.842.842h-.762a.845.845,0,0,1-.843-.842v-8.315a.845.845,0,0,1,.842-.843h3.77a.845.845,0,0,1,.843.842v.558a.845.845,0,0,1-.842.843Z" transform="translate(-185.531 -118.978)"/></svg>