<svg xmlns="http://www.w3.org/2000/svg" width="24" height="24" viewBox="0 0 24 24"><defs><style>.a,.b{fill:none;}.b{stroke:#7a7e7f;stroke-linecap:round;stroke-linejoin:round;stroke-width:1.5px;}</style></defs><path class="a" d="M0,0H24V24H0Z"/><line class="b" y2="2" transform="translate(15 5)"/><line class="b" y2="2" transform="translate(15 11)"/><line class="b" y2="2" transform="translate(15 17)"/><path class="b" d="M5,5H19a2,2,0,0,1,2,2v3a2,2,0,0,0,0,4v3a2,2,0,0,1-2,2H5a2,2,0,0,1-2-2V14a2,2,0,0,0,0-4V7A2,2,0,0,1,5,5"/></svg>